<?xml version="1.0" encoding="UTF-8" standalone="no"?>
<svg
   xmlns:dc="http://purl.org/dc/elements/1.1/"
   xmlns:cc="http://creativecommons.org/ns#"
   xmlns:rdf="http://www.w3.org/1999/02/22-rdf-syntax-ns#"
   xmlns:svg="http://www.w3.org/2000/svg"
   xmlns="http://www.w3.org/2000/svg"
   xmlns:sodipodi="http://sodipodi.sourceforge.net/DTD/sodipodi-0.dtd"
   xmlns:inkscape="http://www.inkscape.org/namespaces/inkscape"
   sodipodi:docname="caterpillar.svg"
   inkscape:version="1.1-dev (c4f43706, 2020-05-27)"
   id="svg77"
   version="1.1"
   viewBox="0 0 183.37312 95.999999"
   height="96mm"
   width="183.37312mm">
  <defs
     id="defs71">
    <marker
       inkscape:isstock="true"
       style="overflow:visible;"
       id="Arrow1Mend"
       refX="0.0"
       refY="0.0"
       orient="auto"
       inkscape:stockid="Arrow1Mend">
      <path
         transform="scale(0.4) rotate(180) translate(10,0)"
         style="fill-rule:evenodd;stroke:#000000;stroke-width:1pt;stroke-opacity:1;fill:#000000;fill-opacity:1"
         d="M 0.0,0.0 L 5.0,-5.0 L -12.5,0.0 L 5.0,5.0 L 0.0,0.0 z "
         id="path1463" />
    </marker>
    <marker
       inkscape:isstock="true"
       style="overflow:visible"
       id="Arrow2Lend"
       refX="0"
       refY="0"
       orient="auto"
       inkscape:stockid="Arrow2Lend">
      <path
         inkscape:connector-curvature="0"
         transform="matrix(-1.1,0,0,-1.1,-1.1,0)"
         d="M 8.7185878,4.0337352 -2.2072895,0.01601326 8.7185884,-4.0017078 c -1.7454984,2.3720609 -1.7354408,5.6174519 -6e-7,8.035443 z"
         style="fill:#000000;fill-opacity:1;fill-rule:evenodd;stroke:#000000;stroke-width:0.625;stroke-linejoin:round;stroke-opacity:1"
         id="path955" />
    </marker>
    <marker
       inkscape:isstock="true"
       style="overflow:visible"
       id="Arrow2Lend-3"
       refX="0"
       refY="0"
       orient="auto"
       inkscape:stockid="Arrow2Lend">
      <path
         transform="matrix(-1.1,0,0,-1.1,-1.1,0)"
         d="M 8.7185878,4.0337352 -2.2072895,0.01601326 8.7185884,-4.0017078 c -1.7454984,2.3720609 -1.7354408,5.6174519 -6e-7,8.035443 z"
         style="fill:#000000;fill-opacity:1;fill-rule:evenodd;stroke:#000000;stroke-width:0.625;stroke-linejoin:round;stroke-opacity:1"
         id="path955-6"
         inkscape:connector-curvature="0" />
    </marker>
    <marker
       inkscape:isstock="true"
       style="overflow:visible"
       id="Arrow2Lend-3-5"
       refX="0"
       refY="0"
       orient="auto"
       inkscape:stockid="Arrow2Lend">
      <path
         transform="matrix(-1.1,0,0,-1.1,-1.1,0)"
         d="M 8.7185878,4.0337352 -2.2072895,0.01601326 8.7185884,-4.0017078 c -1.7454984,2.3720609 -1.7354408,5.6174519 -6e-7,8.035443 z"
         style="fill:#000000;fill-opacity:1;fill-rule:evenodd;stroke:#000000;stroke-width:0.625;stroke-linejoin:round;stroke-opacity:1"
         id="path955-6-3"
         inkscape:connector-curvature="0" />
    </marker>
    <marker
       inkscape:isstock="true"
       style="overflow:visible"
       id="Arrow2Lend-3-6"
       refX="0"
       refY="0"
       orient="auto"
       inkscape:stockid="Arrow2Lend">
      <path
         transform="matrix(-1.1,0,0,-1.1,-1.1,0)"
         d="M 8.7185878,4.0337352 -2.2072895,0.01601326 8.7185884,-4.0017078 c -1.7454984,2.3720609 -1.7354408,5.6174519 -6e-7,8.035443 z"
         style="fill:#000000;fill-opacity:1;fill-rule:evenodd;stroke:#000000;stroke-width:0.625;stroke-linejoin:round;stroke-opacity:1"
         id="path955-6-2"
         inkscape:connector-curvature="0" />
    </marker>
    <marker
       inkscape:isstock="true"
       style="overflow:visible"
       id="Arrow2Lend-3-6-1"
       refX="0"
       refY="0"
       orient="auto"
       inkscape:stockid="Arrow2Lend">
      <path
         transform="matrix(-1.1,0,0,-1.1,-1.1,0)"
         d="M 8.7185878,4.0337352 -2.2072895,0.01601326 8.7185884,-4.0017078 c -1.7454984,2.3720609 -1.7354408,5.6174519 -6e-7,8.035443 z"
         style="fill:#000000;fill-opacity:1;fill-rule:evenodd;stroke:#000000;stroke-width:0.625;stroke-linejoin:round;stroke-opacity:1"
         id="path955-6-2-2"
         inkscape:connector-curvature="0" />
    </marker>
    <marker
       inkscape:isstock="true"
       style="overflow:visible"
       id="Arrow2Lend-3-6-1-0"
       refX="0"
       refY="0"
       orient="auto"
       inkscape:stockid="Arrow2Lend">
      <path
         transform="matrix(-1.1,0,0,-1.1,-1.1,0)"
         d="M 8.7185878,4.0337352 -2.2072895,0.01601326 8.7185884,-4.0017078 c -1.7454984,2.3720609 -1.7354408,5.6174519 -6e-7,8.035443 z"
         style="fill:#000000;fill-opacity:1;fill-rule:evenodd;stroke:#000000;stroke-width:0.625;stroke-linejoin:round;stroke-opacity:1"
         id="path955-6-2-2-9"
         inkscape:connector-curvature="0" />
    </marker>
    <marker
       inkscape:stockid="Arrow1Mend"
       orient="auto"
       refY="0"
       refX="0"
       id="Arrow1Mend-6"
       style="overflow:visible"
       inkscape:isstock="true">
      <path
         id="path1463-0"
         d="M 0,0 5,-5 -12.5,0 5,5 Z"
         style="fill:#000000;fill-opacity:1;fill-rule:evenodd;stroke:#000000;stroke-width:1pt;stroke-opacity:1"
         transform="matrix(-0.4,0,0,-0.4,-4,0)" />
    </marker>
  </defs>
  <sodipodi:namedview
     height="70mm"
     inkscape:window-maximized="0"
     inkscape:window-y="26"
     inkscape:window-x="0"
     inkscape:window-height="1024"
     inkscape:window-width="1680"
     showgrid="false"
     inkscape:current-layer="layer1"
     inkscape:document-units="mm"
     inkscape:cy="258.36282"
     inkscape:cx="390.90273"
     inkscape:zoom="1.086268"
     inkscape:pageshadow="2"
     inkscape:pageopacity="0.0"
     borderopacity="1.0"
     bordercolor="#666666"
     pagecolor="#ffffff"
     id="base" />
  <metadata
     id="metadata74">
    <rdf:RDF>
      <cc:Work
         rdf:about="">
        <dc:format>image/svg+xml</dc:format>
        <dc:type
           rdf:resource="http://purl.org/dc/dcmitype/StillImage" />
      </cc:Work>
    </rdf:RDF>
  </metadata>
  <g
     transform="translate(-51.815183,-5.1612824)"
     id="layer1"
     inkscape:groupmode="layer"
     inkscape:label="Layer 1">
    <path
       inkscape:connector-curvature="0"
       id="path91"
       d="m 114.99987,28.280645 c 0,0 6.18945,-26.9184642 29.80294,-14.665921 23.6135,12.252542 18.8804,29.703133 18.8804,29.703133 0,0 -1.56036,19.740209 -26.94227,17.883764 -25.38191,-1.856449 -21.74107,-32.920976 -21.74107,-32.920976 z"
       style="fill:none;stroke:#000000;stroke-width:0.112;stroke-linecap:butt;stroke-linejoin:miter;stroke-miterlimit:4;stroke-dasharray:none;stroke-opacity:1" />
    <path
       inkscape:connector-curvature="0"
       id="path97"
       d="m 115.04161,28.439538 c -0.34438,6.915995 3.24594,13.519677 8.29908,16.730166 6.18535,4.100338 13.44067,4.527666 20.35488,4.841426 5.76373,0.01868 11.85736,-0.343121 17.01019,-3.744047 1.91736,-1.290699 3.90228,-3.688925 3.21327,-6.552566 -0.76683,-6.001141 -5.13623,-10.105313 -9.46649,-12.597833 -6.5451,-3.691865 -13.78026,-5.33116 -20.94759,-6.143852 -5.59977,-0.425172 -11.79009,0.07604 -16.34178,4.425594 -0.84392,0.857328 -1.62418,1.849811 -2.12156,3.041112 z"
       style="fill:none;stroke:#000000;stroke-width:0.112325px;stroke-linecap:butt;stroke-linejoin:miter;stroke-opacity:1" />
    <path
       inkscape:connector-curvature="0"
       id="path932"
       d="m 155.24697,24.974174 4.7331,-7.735192"
       style="fill:none;stroke:#000000;stroke-width:0.112325px;stroke-linecap:butt;stroke-linejoin:miter;stroke-opacity:1;marker-end:url(#Arrow2Lend)" />
    <path
       inkscape:connector-curvature="0"
       id="path932-7"
       d="m 140.22158,19.734358 0.71358,-9.530111"
       style="fill:none;stroke:#000000;stroke-width:0.112325px;stroke-linecap:butt;stroke-linejoin:miter;stroke-opacity:1;marker-end:url(#Arrow2Lend-3)" />
    <path
       inkscape:connector-curvature="0"
       id="path932-7-5"
       d="m 121.84337,19.694297 -4.10561,-8.227026"
       style="fill:none;stroke:#000000;stroke-width:0.112325px;stroke-linecap:butt;stroke-linejoin:miter;stroke-opacity:1;marker-end:url(#Arrow2Lend-3-5)" />
    <path
       inkscape:connector-curvature="0"
       id="path932-7-9"
       d="m 135.60551,57.425114 -1.76172,9.335445"
       style="fill:none;stroke:#000000;stroke-width:0.112325px;stroke-linecap:butt;stroke-linejoin:miter;stroke-opacity:1;marker-end:url(#Arrow2Lend-3-6)" />
    <path
       inkscape:connector-curvature="0"
       id="path932-7-9-7"
       d="m 119.32261,46.479146 -5.92633,6.46754"
       style="fill:none;stroke:#000000;stroke-width:0.112325px;stroke-linecap:butt;stroke-linejoin:miter;stroke-opacity:1;marker-end:url(#Arrow2Lend-3-6-1)" />
    <path
       inkscape:transform-center-y="0.9240139"
       inkscape:transform-center-x="-0.37628596"
       inkscape:connector-curvature="0"
       id="path932-7-9-7-3"
       d="m 156.75423,53.424972 4.91295,7.574783"
       style="fill:none;stroke:#000000;stroke-width:0.112325px;stroke-linecap:butt;stroke-linejoin:miter;stroke-opacity:1;marker-end:url(#Arrow2Lend-3-6-1-0)" />
    <text
       transform="scale(0.9167939,1.0907577)"
       id="text3607"
       y="23.578712"
       x="176.14754"
       style="font-style:normal;font-weight:normal;font-size:5.76831px;line-height:1.25;font-family:sans-serif;letter-spacing:0px;word-spacing:0px;fill:#000000;fill-opacity:1;stroke:none;stroke-width:0.144208"
       xml:space="preserve"><tspan
         style="stroke-width:0.144208"
         y="23.578712"
         x="176.14754"
         id="tspan3605"
         sodipodi:role="line">$\Omega$</tspan></text>
    <text
       transform="scale(0.9167939,1.0907577)"
       id="text3607-8"
       y="81.204201"
       x="181.91498"
       style="font-style:normal;font-weight:normal;font-size:5.76831px;line-height:1.25;font-family:sans-serif;letter-spacing:0px;word-spacing:0px;fill:#000000;fill-opacity:1;stroke:none;stroke-width:0.144208"
       xml:space="preserve"><tspan
         style="stroke-width:0.144208"
         y="81.204201"
         x="181.91498"
         id="tspan3605-7"
         sodipodi:role="line">$\overline{\Omega}$</tspan></text>
    <path
       inkscape:connector-curvature="0"
       id="path3797"
       d="m 114.81471,34.457794 v 41.08804"
       style="fill:none;stroke:#000000;stroke-width:0.112;stroke-linecap:butt;stroke-linejoin:miter;stroke-miterlimit:4;stroke-dasharray:none;stroke-opacity:1" />
    <path
       inkscape:connector-curvature="0"
       id="path97-9"
       d="m 114.75775,74.722918 c -0.34438,6.915994 3.24594,13.519676 8.29908,16.730158 6.18535,4.10034 13.44067,4.52767 20.35488,4.84143 5.76374,0.0187 11.85737,-0.34312 17.01019,-3.74405 1.91736,-1.29069 3.90229,-3.688922 3.21328,-6.552561 -0.76684,-6.001139 -5.13623,-10.105316 -9.46649,-12.597835 -6.54511,-3.691864 -13.78026,-5.33116 -20.9476,-6.14385 -5.59977,-0.425173 -11.79009,0.07604 -16.34178,4.425591 -0.84391,0.857331 -1.62418,1.849811 -2.12156,3.041117 z"
       style="fill:none;stroke:#000000;stroke-width:0.112325px;stroke-linecap:butt;stroke-linejoin:miter;stroke-opacity:1" />
    <path
       inkscape:connector-curvature="0"
       id="path3824"
       d="m 163.84258,87.124309 0.21937,-48.295068"
       style="fill:none;stroke:#000000;stroke-width:0.112;stroke-linecap:butt;stroke-linejoin:miter;stroke-miterlimit:4;stroke-dasharray:none;stroke-opacity:1" />
    <path
       id="path1452"
       d="m 92.491534,21.967678 c 0,0 12.178546,-11.934976 34.587076,-3.897135"
       style="fill:none;stroke:#000000;stroke-width:0.26458300000000001px;stroke-linecap:butt;stroke-linejoin:miter;stroke-opacity:1;marker-end:url(#Arrow1Mend)" />
    <path
       style="fill:none;stroke:#000000;stroke-width:0.311337px;stroke-linecap:butt;stroke-linejoin:miter;stroke-opacity:1;marker-end:url(#Arrow1Mend-6)"
       d="m 87.421017,49.225505 c 0,0 12.178546,16.525632 34.587073,5.396124"
       id="path1452-7" />
    <text
       xml:space="preserve"
       style="font-style:normal;font-weight:normal;font-size:5.76831px;line-height:1.25;font-family:sans-serif;letter-spacing:0px;word-spacing:0px;fill:#000000;fill-opacity:1;stroke:none;stroke-width:0.144208"
       x="89.810379"
       y="23.919567"
       id="text3607-1"
       transform="scale(0.91679389,1.0907577)"><tspan
         sodipodi:role="line"
         id="tspan3605-6"
         x="89.810379"
         y="23.919567"
         style="stroke-width:0.144208">$z_1(x, y)$</tspan></text>
    <text
       transform="scale(0.91679389,1.0907577)"
       id="text3607-1-7"
       y="43.21629"
       x="86.300148"
       style="font-style:normal;font-weight:normal;font-size:5.76831px;line-height:1.25;font-family:sans-serif;letter-spacing:0px;word-spacing:0px;fill:#000000;fill-opacity:1;stroke:none;stroke-width:0.144208"
       xml:space="preserve"><tspan
         style="stroke-width:0.144208"
         y="43.21629"
         x="86.300148"
         id="tspan3605-6-8"
         sodipodi:role="line">$z_2(x, y)$</tspan></text>
  </g>
</svg>
