<?xml version="1.0" encoding="UTF-8" standalone="no"?>
<!-- Created with Inkscape (http://www.inkscape.org/) -->

<svg
   xmlns:dc="http://purl.org/dc/elements/1.1/"
   xmlns:cc="http://creativecommons.org/ns#"
   xmlns:rdf="http://www.w3.org/1999/02/22-rdf-syntax-ns#"
   xmlns:svg="http://www.w3.org/2000/svg"
   xmlns="http://www.w3.org/2000/svg"
   xmlns:sodipodi="http://sodipodi.sourceforge.net/DTD/sodipodi-0.dtd"
   xmlns:inkscape="http://www.inkscape.org/namespaces/inkscape"
   width="183.37312mm"
   height="170.53874mm"
   viewBox="0 0 183.37312 170.53874"
   version="1.1"
   id="svg77"
   inkscape:version="0.92.4 (5da689c313, 2019-01-14)"
   sodipodi:docname="volume.svg">
  <defs
     id="defs71">
    <marker
       inkscape:stockid="Arrow2Lend"
       orient="auto"
       refY="0"
       refX="0"
       id="Arrow2Lend"
       style="overflow:visible"
       inkscape:isstock="true">
      <path
         id="path955"
         style="fill:#000000;fill-opacity:1;fill-rule:evenodd;stroke:#000000;stroke-width:0.625;stroke-linejoin:round;stroke-opacity:1"
         d="M 8.7185878,4.0337352 -2.2072895,0.01601326 8.7185884,-4.0017078 c -1.7454984,2.3720609 -1.7354408,5.6174519 -6e-7,8.035443 z"
         transform="matrix(-1.1,0,0,-1.1,-1.1,0)"
         inkscape:connector-curvature="0" />
    </marker>
    <marker
       inkscape:stockid="Arrow2Lend"
       orient="auto"
       refY="0"
       refX="0"
       id="Arrow2Lend-3"
       style="overflow:visible"
       inkscape:isstock="true">
      <path
         inkscape:connector-curvature="0"
         id="path955-6"
         style="fill:#000000;fill-opacity:1;fill-rule:evenodd;stroke:#000000;stroke-width:0.625;stroke-linejoin:round;stroke-opacity:1"
         d="M 8.7185878,4.0337352 -2.2072895,0.01601326 8.7185884,-4.0017078 c -1.7454984,2.3720609 -1.7354408,5.6174519 -6e-7,8.035443 z"
         transform="matrix(-1.1,0,0,-1.1,-1.1,0)" />
    </marker>
    <marker
       inkscape:stockid="Arrow2Lend"
       orient="auto"
       refY="0"
       refX="0"
       id="Arrow2Lend-3-5"
       style="overflow:visible"
       inkscape:isstock="true">
      <path
         inkscape:connector-curvature="0"
         id="path955-6-3"
         style="fill:#000000;fill-opacity:1;fill-rule:evenodd;stroke:#000000;stroke-width:0.625;stroke-linejoin:round;stroke-opacity:1"
         d="M 8.7185878,4.0337352 -2.2072895,0.01601326 8.7185884,-4.0017078 c -1.7454984,2.3720609 -1.7354408,5.6174519 -6e-7,8.035443 z"
         transform="matrix(-1.1,0,0,-1.1,-1.1,0)" />
    </marker>
    <marker
       inkscape:stockid="Arrow2Lend"
       orient="auto"
       refY="0"
       refX="0"
       id="Arrow2Lend-3-6"
       style="overflow:visible"
       inkscape:isstock="true">
      <path
         inkscape:connector-curvature="0"
         id="path955-6-2"
         style="fill:#000000;fill-opacity:1;fill-rule:evenodd;stroke:#000000;stroke-width:0.625;stroke-linejoin:round;stroke-opacity:1"
         d="M 8.7185878,4.0337352 -2.2072895,0.01601326 8.7185884,-4.0017078 c -1.7454984,2.3720609 -1.7354408,5.6174519 -6e-7,8.035443 z"
         transform="matrix(-1.1,0,0,-1.1,-1.1,0)" />
    </marker>
    <marker
       inkscape:stockid="Arrow2Lend"
       orient="auto"
       refY="0"
       refX="0"
       id="Arrow2Lend-3-6-1"
       style="overflow:visible"
       inkscape:isstock="true">
      <path
         inkscape:connector-curvature="0"
         id="path955-6-2-2"
         style="fill:#000000;fill-opacity:1;fill-rule:evenodd;stroke:#000000;stroke-width:0.625;stroke-linejoin:round;stroke-opacity:1"
         d="M 8.7185878,4.0337352 -2.2072895,0.01601326 8.7185884,-4.0017078 c -1.7454984,2.3720609 -1.7354408,5.6174519 -6e-7,8.035443 z"
         transform="matrix(-1.1,0,0,-1.1,-1.1,0)" />
    </marker>
    <marker
       inkscape:stockid="Arrow2Lend"
       orient="auto"
       refY="0"
       refX="0"
       id="Arrow2Lend-3-6-1-0"
       style="overflow:visible"
       inkscape:isstock="true">
      <path
         inkscape:connector-curvature="0"
         id="path955-6-2-2-9"
         style="fill:#000000;fill-opacity:1;fill-rule:evenodd;stroke:#000000;stroke-width:0.625;stroke-linejoin:round;stroke-opacity:1"
         d="M 8.7185878,4.0337352 -2.2072895,0.01601326 8.7185884,-4.0017078 c -1.7454984,2.3720609 -1.7354408,5.6174519 -6e-7,8.035443 z"
         transform="matrix(-1.1,0,0,-1.1,-1.1,0)" />
    </marker>
  </defs>
  <sodipodi:namedview
     id="base"
     pagecolor="#ffffff"
     bordercolor="#666666"
     borderopacity="1.0"
     inkscape:pageopacity="0.0"
     inkscape:pageshadow="2"
     inkscape:zoom="0.7"
     inkscape:cx="107.09757"
     inkscape:cy="387.61215"
     inkscape:document-units="mm"
     inkscape:current-layer="layer1"
     showgrid="false"
     inkscape:window-width="2880"
     inkscape:window-height="1672"
     inkscape:window-x="0"
     inkscape:window-y="54"
     inkscape:window-maximized="1" />
  <metadata
     id="metadata74">
    <rdf:RDF>
      <cc:Work
         rdf:about="">
        <dc:format>image/svg+xml</dc:format>
        <dc:type
           rdf:resource="http://purl.org/dc/dcmitype/StillImage" />
        <dc:title></dc:title>
      </cc:Work>
    </rdf:RDF>
  </metadata>
  <g
     inkscape:label="Layer 1"
     inkscape:groupmode="layer"
     id="layer1"
     transform="translate(-51.815183,-5.1612824)">
    <path
       style="fill:none;stroke:#000000;stroke-width:0.20608573px;stroke-linecap:butt;stroke-linejoin:miter;stroke-opacity:1"
       d="m 55.294441,35.910791 c 0,0 12.386594,-45.2787195 59.642999,-24.669095 47.25642,20.609625 37.78431,49.962727 37.78431,49.962727 0,0 -3.12266,33.204396 -53.918101,30.081728 C 48.00821,88.163475 55.294441,35.910791 55.294441,35.910791 Z"
       id="path91"
       inkscape:connector-curvature="0" />
    <path
       style="fill:none;stroke:#000000;stroke-width:0.20608573px;stroke-linecap:butt;stroke-linejoin:miter;stroke-opacity:1"
       d="m 55.377963,36.178061 c -0.689197,11.633181 6.495919,22.741032 16.608493,28.141296 12.378407,6.897052 26.898088,7.615848 40.735124,8.143613 11.53465,0.03142 23.7295,-0.577153 34.04157,-6.297746 3.8371,-2.171044 7.80942,-6.205026 6.43055,-11.021869 C 151.65907,45.049021 142.91484,38.145519 134.24893,33.952928 121.15057,27.742956 106.67124,24.985549 92.327652,23.618544 81.121136,22.903376 68.73278,23.746454 59.623728,31.062699 c -1.688883,1.442086 -3.250376,3.111511 -4.245765,5.115362 z"
       id="path97"
       inkscape:connector-curvature="0" />
    <path
       style="fill:none;stroke:#000000;stroke-width:0.20608573px;stroke-linecap:butt;stroke-linejoin:miter;stroke-opacity:1;marker-end:url(#Arrow2Lend)"
       d="m 135.83877,30.349078 9.4721,-13.011128"
       id="path932"
       inkscape:connector-curvature="0" />
    <path
       style="fill:none;stroke:#000000;stroke-width:0.20608573px;stroke-linecap:butt;stroke-linejoin:miter;stroke-opacity:1;marker-end:url(#Arrow2Lend-3)"
       d="M 105.76927,21.535345 107.19733,5.5050392"
       id="path932-7"
       inkscape:connector-curvature="0" />
    <path
       style="fill:none;stroke:#000000;stroke-width:0.20608573px;stroke-linecap:butt;stroke-linejoin:miter;stroke-opacity:1;marker-end:url(#Arrow2Lend-3-5)"
       d="M 68.989956,21.467959 60.773628,7.6295332"
       id="path932-7-5"
       inkscape:connector-curvature="0" />
    <path
       style="fill:none;stroke:#000000;stroke-width:0.20608573px;stroke-linecap:butt;stroke-linejoin:miter;stroke-opacity:1;marker-end:url(#Arrow2Lend-3-6)"
       d="M 96.531392,84.933804 93.00575,100.63667"
       id="path932-7-9"
       inkscape:connector-curvature="0" />
    <path
       style="fill:none;stroke:#000000;stroke-width:0.20608573px;stroke-linecap:butt;stroke-linejoin:miter;stroke-opacity:1;marker-end:url(#Arrow2Lend-3-6-1)"
       d="M 63.945294,66.521929 52.085251,77.400779"
       id="path932-7-9-7"
       inkscape:connector-curvature="0" />
    <path
       style="fill:none;stroke:#000000;stroke-width:0.20608573px;stroke-linecap:butt;stroke-linejoin:miter;stroke-opacity:1;marker-end:url(#Arrow2Lend-3-6-1-0)"
       d="m 138.85516,78.205289 9.83203,12.741309"
       id="path932-7-9-7-3"
       inkscape:connector-curvature="0"
       inkscape:transform-center-x="-0.75304214"
       inkscape:transform-center-y="1.5542551" />
    <text
       xml:space="preserve"
       style="font-style:normal;font-weight:normal;font-size:10.58333302px;line-height:1.25;font-family:sans-serif;letter-spacing:0px;word-spacing:0px;fill:#000000;fill-opacity:1;stroke:none;stroke-width:0.26458332"
       x="148.33458"
       y="31.601358"
       id="text3607"><tspan
         sodipodi:role="line"
         id="tspan3605"
         x="148.33458"
         y="31.601358"
         style="stroke-width:0.26458332">$\Omega$</tspan></text>
    <text
       xml:space="preserve"
       style="font-style:normal;font-weight:normal;font-size:10.58333302px;line-height:1.25;font-family:sans-serif;letter-spacing:0px;word-spacing:0px;fill:#000000;fill-opacity:1;stroke:none;stroke-width:0.26458332"
       x="120.89555"
       y="129.13449"
       id="text3607-8"><tspan
         sodipodi:role="line"
         id="tspan3605-7"
         x="120.89555"
         y="129.13449"
         style="stroke-width:0.26458332">$\overline{\Omega}$</tspan></text>
    <path
       style="fill:none;stroke:#000000;stroke-width:0.26458332px;stroke-linecap:butt;stroke-linejoin:miter;stroke-opacity:1"
       d="M 54.923888,46.301183 V 139.31098"
       id="path3797"
       inkscape:connector-curvature="0" />
    <path
       style="fill:none;stroke:#000000;stroke-width:0.20608573px;stroke-linecap:butt;stroke-linejoin:miter;stroke-opacity:1"
       d="m 54.923888,139.31098 c -0.689197,11.63318 6.495919,22.74103 16.608493,28.14129 12.378407,6.89705 26.898089,7.61585 40.735129,8.14361 11.53465,0.0314 23.7295,-0.57715 34.04157,-6.29774 3.8371,-2.17104 7.80942,-6.20503 6.43055,-11.02187 -1.53463,-10.09433 -10.27886,-16.99784 -18.94477,-21.19043 -13.09836,-6.20997 -27.57769,-8.96738 -41.921283,-10.33438 -11.206516,-0.71517 -23.594872,0.12791 -32.703924,7.44415 -1.688883,1.44209 -3.250376,3.11151 -4.245765,5.11537 z"
       id="path97-9"
       inkscape:connector-curvature="0" />
    <path
       style="fill:none;stroke:#000000;stroke-width:0.25804847px;stroke-linecap:butt;stroke-linejoin:miter;stroke-opacity:1"
       d="M 153.0407,160.25746 153.47971,53.654259"
       id="path3824"
       inkscape:connector-curvature="0" />
  </g>
</svg>
